<?xml version="1.0" encoding="UTF-8" standalone="no"?>
<!DOCTYPE svg PUBLIC "-//W3C//DTD SVG 1.1//EN"
 "http://www.w3.org/Graphics/SVG/1.1/DTD/svg11.dtd">
<!-- Generated by graphviz version 13.1.0 (20250701.0955)
 -->
<!-- Title: apa102c_basic_init Pages: 1 -->
<svg width="286pt" height="254pt"
 viewBox="0.00 0.00 286.00 254.00" xmlns="http://www.w3.org/2000/svg" xmlns:xlink="http://www.w3.org/1999/xlink">
<g id="graph0" class="graph" transform="scale(1 1) rotate(0) translate(4 250)">
<title>apa102c_basic_init</title>
<!-- Node1 -->
<g id="Node000001" class="node">
<title>Node1</title>
<g id="a_Node000001"><a xlink:title="basic example init">
<polygon fill="#999999" stroke="#666666" points="99.25,-136 0,-136 0,-116 99.25,-116 99.25,-136"/>
<text xml:space="preserve" text-anchor="middle" x="49.62" y="-122.5" font-family="Helvetica,sans-Serif" font-size="10.00">apa102c_basic_init</text>
</a>
</g>
</g>
<!-- Node2 -->
<g id="Node000002" class="node">
<title>Node2</title>
<g id="a_Node000002"><a xlink:href="group__apa102c__base__driver.html#ga5286e2ae09430fe92e3ffae4f15db556" target="_top" xlink:title="initialize the chip">
<polygon fill="white" stroke="#666666" points="242,-246 171.25,-246 171.25,-226 242,-226 242,-246"/>
<text xml:space="preserve" text-anchor="middle" x="206.62" y="-232.5" font-family="Helvetica,sans-Serif" font-size="10.00">apa102c_init</text>
</a>
</g>
</g>
<!-- Node1&#45;&gt;Node2 -->
<g id="edge1_Node000001_Node000002" class="edge">
<title>Node1&#45;&gt;Node2</title>
<g id="a_edge1_Node000001_Node000002"><a xlink:title=" ">
<path fill="none" stroke="#63b8ff" d="M57.2,-136.21C69.91,-155.12 99.78,-195.61 135.25,-217 142.71,-221.5 151.25,-224.95 159.74,-227.6"/>
<polygon fill="#63b8ff" stroke="#63b8ff" points="158.76,-230.96 169.33,-230.23 160.61,-224.21 158.76,-230.96"/>
</a>
</g>
</g>
<!-- Node3 -->
<g id="Node000003" class="node">
<title>Node3</title>
<g id="a_Node000003"><a xlink:href="group__apa102c__interface__driver.html#ga90a96afe04aef4af03a4ef1242bafe98" target="_top" xlink:title="interface print format data">
<polygon fill="white" stroke="#666666" points="270.12,-208 143.12,-208 143.12,-176 270.12,-176 270.12,-208"/>
<text xml:space="preserve" text-anchor="start" x="151.12" y="-194.5" font-family="Helvetica,sans-Serif" font-size="10.00">apa102c_interface_debug</text>
<text xml:space="preserve" text-anchor="middle" x="206.62" y="-182.5" font-family="Helvetica,sans-Serif" font-size="10.00">_print</text>
</a>
</g>
</g>
<!-- Node1&#45;&gt;Node3 -->
<g id="edge2_Node000001_Node000003" class="edge">
<title>Node1&#45;&gt;Node3</title>
<g id="a_edge2_Node000001_Node000003"><a xlink:title=" ">
<path fill="none" stroke="#63b8ff" d="M70.52,-136.41C87.49,-145.1 112.66,-157.55 135.25,-167 139,-168.57 142.89,-170.13 146.82,-171.66"/>
<polygon fill="#63b8ff" stroke="#63b8ff" points="145.27,-174.81 155.86,-175.08 147.75,-168.27 145.27,-174.81"/>
</a>
</g>
</g>
<!-- Node4 -->
<g id="Node000004" class="node">
<title>Node4</title>
<g id="a_Node000004"><a xlink:href="group__apa102c__interface__driver.html#ga27ae678d0a231d3eccb0d8d3b0a70634" target="_top" xlink:title="interface delay ms">
<polygon fill="white" stroke="#666666" points="278,-158 135.25,-158 135.25,-138 278,-138 278,-158"/>
<text xml:space="preserve" text-anchor="middle" x="206.62" y="-144.5" font-family="Helvetica,sans-Serif" font-size="10.00">apa102c_interface_delay_ms</text>
</a>
</g>
</g>
<!-- Node1&#45;&gt;Node4 -->
<g id="edge3_Node000001_Node000004" class="edge">
<title>Node1&#45;&gt;Node4</title>
<g id="a_edge3_Node000001_Node000004"><a xlink:title=" ">
<path fill="none" stroke="#63b8ff" d="M99.67,-132.96C107.35,-134.05 115.47,-135.2 123.65,-136.36"/>
<polygon fill="#63b8ff" stroke="#63b8ff" points="122.92,-139.8 133.32,-137.74 123.91,-132.87 122.92,-139.8"/>
</a>
</g>
</g>
<!-- Node5 -->
<g id="Node000005" class="node">
<title>Node5</title>
<g id="a_Node000005"><a xlink:href="group__apa102c__interface__driver.html#ga323e4e3dab111af41156392891d5c4e8" target="_top" xlink:title="interface spi bus deinit">
<polygon fill="white" stroke="#666666" points="263.38,-120 149.88,-120 149.88,-88 263.38,-88 263.38,-120"/>
<text xml:space="preserve" text-anchor="start" x="157.88" y="-106.5" font-family="Helvetica,sans-Serif" font-size="10.00">apa102c_interface_spi</text>
<text xml:space="preserve" text-anchor="middle" x="206.62" y="-94.5" font-family="Helvetica,sans-Serif" font-size="10.00">_deinit</text>
</a>
</g>
</g>
<!-- Node1&#45;&gt;Node5 -->
<g id="edge4_Node000001_Node000005" class="edge">
<title>Node1&#45;&gt;Node5</title>
<g id="a_edge4_Node000001_Node000005"><a xlink:title=" ">
<path fill="none" stroke="#63b8ff" d="M99.67,-119.04C111.95,-117.3 125.33,-115.4 138.33,-113.55"/>
<polygon fill="#63b8ff" stroke="#63b8ff" points="138.7,-117.03 148.11,-112.16 137.72,-110.1 138.7,-117.03"/>
</a>
</g>
</g>
<!-- Node6 -->
<g id="Node000006" class="node">
<title>Node6</title>
<g id="a_Node000006"><a xlink:href="group__apa102c__interface__driver.html#gaf1f4f3e5ff19db762bbb4b2679d5f9a4" target="_top" xlink:title="interface spi bus init">
<polygon fill="white" stroke="#666666" points="272.38,-70 140.88,-70 140.88,-50 272.38,-50 272.38,-70"/>
<text xml:space="preserve" text-anchor="middle" x="206.62" y="-56.5" font-family="Helvetica,sans-Serif" font-size="10.00">apa102c_interface_spi_init</text>
</a>
</g>
</g>
<!-- Node1&#45;&gt;Node6 -->
<g id="edge5_Node000001_Node000006" class="edge">
<title>Node1&#45;&gt;Node6</title>
<g id="a_edge5_Node000001_Node000006"><a xlink:title=" ">
<path fill="none" stroke="#63b8ff" d="M66.58,-115.59C83.17,-105.14 110.18,-89.17 135.25,-79 139.86,-77.13 144.71,-75.39 149.63,-73.77"/>
<polygon fill="#63b8ff" stroke="#63b8ff" points="150.44,-77.19 158.96,-70.9 148.38,-70.5 150.44,-77.19"/>
</a>
</g>
</g>
<!-- Node7 -->
<g id="Node000007" class="node">
<title>Node7</title>
<g id="a_Node000007"><a xlink:href="group__apa102c__interface__driver.html#gaebc029cfdbd24460cc78141867b0b49a" target="_top" xlink:title="interface spi bus write command">
<polygon fill="white" stroke="#666666" points="263.38,-32 149.88,-32 149.88,0 263.38,0 263.38,-32"/>
<text xml:space="preserve" text-anchor="start" x="157.88" y="-18.5" font-family="Helvetica,sans-Serif" font-size="10.00">apa102c_interface_spi</text>
<text xml:space="preserve" text-anchor="middle" x="206.62" y="-6.5" font-family="Helvetica,sans-Serif" font-size="10.00">_write_cmd</text>
</a>
</g>
</g>
<!-- Node1&#45;&gt;Node7 -->
<g id="edge6_Node000001_Node000007" class="edge">
<title>Node1&#45;&gt;Node7</title>
<g id="a_edge6_Node000001_Node000007"><a xlink:title=" ">
<path fill="none" stroke="#63b8ff" d="M58.36,-115.63C72.04,-97.97 102.17,-61.94 135.25,-41 137.22,-39.75 139.26,-38.56 141.35,-37.42"/>
<polygon fill="#63b8ff" stroke="#63b8ff" points="142.66,-40.67 150.07,-33.1 139.55,-34.4 142.66,-40.67"/>
</a>
</g>
</g>
</g>
</svg>
